<?xml version="1.0" standalone="no"?>
<!DOCTYPE svg PUBLIC "-//W3C//DTD SVG 20010904//EN"
 "http://www.w3.org/TR/2001/REC-SVG-20010904/DTD/svg10.dtd">
<svg version="1.0" xmlns="http://www.w3.org/2000/svg"
 width="300.000000pt" height="300.000000pt" viewBox="0 0 300.000000 300.000000"
 preserveAspectRatio="xMidYMid meet">
<metadata>
Created by potrace 1.10, written by Peter Selinger 2001-2011
</metadata>
<g transform="translate(0.000000,300.000000) scale(0.100000,-0.100000)"
fill="#000000" stroke="none">
<path d="M525 2730 c-13 -21 -19 -58 -19 -120 -1 -99 39 -187 123 -275 111
-116 107 -109 83 -147 -47 -79 -66 -157 -68 -288 -2 -116 -4 -129 -33 -190
-41 -86 -52 -153 -50 -285 2 -116 20 -210 45 -235 13 -13 14 6 8 160 -7 171
-6 177 18 235 13 33 37 80 54 105 28 44 29 45 32 18 2 -16 7 -28 12 -28 5 0
40 -29 78 -64 39 -36 79 -69 90 -75 13 -7 18 -17 15 -30 -4 -16 6 -25 51 -48
43 -21 54 -30 44 -38 -34 -25 -158 -412 -165 -511 -5 -70 15 -172 39 -201 40
-48 119 40 126 139 3 32 2 58 -1 58 -14 0 -52 -78 -63 -129 l-12 -56 -2 50
c-2 32 -5 40 -7 22 -2 -15 -8 -27 -13 -27 -14 0 -40 98 -40 148 0 45 45 209
63 227 10 10 1 -290 -9 -307 -3 -4 -1 -8 4 -8 24 0 41 73 47 201 5 113 28 288
51 403 5 24 3 28 -10 23 -9 -4 -16 -2 -16 3 0 6 -8 10 -18 10 -10 0 -27 6 -38
14 -36 27 -7 26 63 -1 l71 -28 -4 -95 c-8 -216 -16 -289 -34 -351 -23 -73 -25
-98 -6 -54 31 73 42 142 51 318 7 126 9 137 26 137 23 0 23 0 41 -119 14 -93
14 -96 -9 -153 -21 -50 -25 -86 -33 -246 -5 -103 -9 -212 -10 -241 0 -70 -12
-57 -38 43 -24 91 -49 128 -38 59 6 -39 32 -104 72 -175 20 -37 66 -38 98 -3
l23 25 26 -37 c40 -60 107 -124 185 -177 l72 -50 83 57 c56 38 100 78 132 119
27 35 52 67 57 72 4 6 17 1 32 -13 32 -30 88 -26 96 7 3 13 -1 125 -7 250 -11
198 -16 236 -38 297 -21 59 -23 76 -15 105 6 19 13 64 16 100 4 43 11 69 22
78 9 7 11 12 4 12 -21 0 -13 17 11 24 16 4 19 8 9 15 -11 7 -10 9 3 14 9 4 14
3 10 -2 -3 -5 1 -15 8 -23 8 -7 12 -24 11 -38 -3 -31 12 -180 37 -363 10 -76
19 -169 19 -205 0 -49 5 -76 20 -99 46 -76 96 -62 123 34 26 92 19 206 -12
201 -13 -3 -17 11 -22 82 -6 86 2 134 15 92 4 -12 5 -26 2 -31 -3 -5 1 -23 10
-40 9 -18 14 -45 12 -62 -3 -16 -2 -29 2 -29 3 0 14 -26 24 -57 15 -46 20 -53
28 -40 14 27 -27 223 -89 420 -13 42 -17 46 -31 35 -15 -11 -15 -11 -4 4 16
20 6 68 -15 68 -8 0 -12 4 -9 9 3 5 -1 14 -9 21 -8 7 -15 16 -15 19 0 4 33 28
73 54 69 43 163 133 187 176 5 11 10 29 10 41 0 12 5 18 10 15 6 -3 10 2 10
12 0 10 14 -10 31 -45 33 -66 33 -87 0 -58 -19 17 -19 17 -14 -3 4 -15 1 -21
-10 -21 -9 0 -19 -5 -23 -11 -4 -7 4 -10 22 -7 26 3 32 -2 51 -42 20 -40 23
-63 25 -217 1 -95 6 -169 11 -164 21 21 36 122 36 246 0 140 -10 189 -50 266
-20 39 -23 59 -24 169 -1 108 -5 136 -29 205 -15 44 -34 90 -42 103 -19 29 -9
46 81 142 68 72 122 184 131 268 5 53 -16 134 -37 141 -12 4 -12 2 0 -12 11
-15 9 -24 -19 -67 -70 -108 -206 -195 -354 -226 l-78 -16 -46 31 c-180 117
-286 152 -457 153 -175 2 -324 -48 -461 -153 l-50 -38 -85 20 c-159 38 -292
125 -363 237 -22 35 -25 46 -15 58 7 9 8 14 1 14 -6 0 -14 -4 -17 -10z m32
-104 c4 -8 30 -37 56 -65 26 -28 47 -53 47 -56 -1 -12 58 -58 116 -91 80 -44
155 -70 283 -95 103 -21 106 -22 205 -96 56 -41 116 -89 134 -106 58 -55 34
-49 -41 11 -117 93 -141 105 -214 107 -68 3 -70 -1 -13 -32 19 -10 88 -54 153
-98 132 -90 146 -111 104 -153 l-26 -25 -38 25 c-42 29 -154 95 -195 117 -35
18 -172 121 -215 161 -19 18 -36 30 -39 28 -2 -3 29 -37 71 -77 41 -39 70 -71
64 -71 -6 0 -48 20 -94 45 -65 36 -104 68 -182 148 -54 56 -116 117 -136 136
-21 18 -36 36 -33 38 2 3 -4 23 -15 46 -29 64 -22 156 8 103z m1906 -49 c-20
-88 -56 -166 -77 -167 -5 0 -55 -46 -111 -102 -83 -84 -118 -111 -188 -148
-103 -53 -99 -67 5 -17 78 37 162 100 150 112 -4 5 -1 5 6 1 9 -5 9 -12 1 -27
-8 -16 -7 -25 5 -38 9 -10 16 -30 16 -45 0 -15 7 -40 15 -56 25 -48 38 -162
27 -234 -21 -133 -110 -254 -233 -316 -54 -28 -76 -34 -144 -36 -44 -1 -66 -1
-50 2 100 14 154 29 201 55 58 33 126 98 156 150 20 33 20 34 1 10 -25 -29
-42 -11 -20 22 33 51 50 211 32 297 -4 20 -21 48 -39 66 -32 29 -34 30 -72 17
-21 -7 -59 -23 -84 -35 -66 -32 -25 -35 53 -4 35 14 66 26 69 26 4 0 16 -30
28 -66 50 -148 7 -307 -108 -399 -31 -25 -75 -50 -97 -57 -60 -17 -146 -13
-198 10 -86 38 -167 133 -167 197 0 30 55 94 119 137 49 33 82 64 76 70 -2 2
31 24 73 50 42 25 76 51 75 56 -1 6 21 28 50 50 29 21 70 58 92 81 83 87 161
163 183 178 12 8 22 22 22 29 0 8 -34 -13 -77 -49 -43 -35 -103 -80 -133 -100
-58 -39 -59 -51 -1 -16 54 32 47 15 -16 -40 -88 -77 -159 -128 -309 -220 -134
-83 -137 -84 -163 -68 -14 9 -27 26 -29 40 -3 22 13 37 110 109 137 101 189
130 248 140 27 4 11 5 -39 2 l-84 -6 29 27 c31 29 17 25 -31 -9 -16 -12 -47
-29 -67 -40 -20 -10 -73 -47 -117 -82 -82 -64 -109 -74 -48 -17 49 46 215 172
240 183 12 5 81 20 152 35 178 35 261 77 375 188 47 46 88 82 92 80 3 -2 4
-13 1 -26z m-1193 -51 c0 -2 -24 -17 -52 -34 -29 -16 -75 -46 -102 -66 -37
-29 -54 -36 -73 -31 l-25 6 33 18 c74 41 211 111 215 111 2 0 4 -2 4 -4z m438
-29 c40 -14 102 -44 138 -66 36 -23 70 -41 76 -41 23 0 -33 47 -94 79 -77 41
-95 56 -53 46 33 -7 195 -103 195 -115 0 -4 10 -10 23 -14 18 -5 20 -8 7 -16
-8 -5 -26 -10 -41 -10 -14 0 -30 -5 -36 -11 -18 -18 -37 -1 -21 19 42 50 -189
-59 -254 -120 -40 -38 -51 -59 -93 -176 -26 -73 -51 -129 -55 -125 -4 4 -29
62 -55 128 -40 99 -57 128 -96 167 -52 51 -181 128 -216 128 -40 0 -33 18 21
54 120 80 218 107 371 102 87 -2 125 -8 183 -29z m91 -210 c-2 -2 -48 -38
-102 -81 -94 -74 -138 -98 -79 -44 42 41 175 138 181 133 2 -3 2 -6 0 -8z
m-538 -29 c74 -53 139 -109 139 -121 0 -6 -12 1 -27 15 -16 14 -61 51 -102 82
-77 59 -85 78 -10 24z m-506 -68 c3 -6 -2 -22 -13 -38 -39 -57 -56 -124 -58
-225 -1 -54 -5 -101 -9 -105 -4 -4 -5 40 -3 98 4 81 11 125 34 192 28 86 36
98 49 78z m41 -95 c-32 -49 -48 -138 -37 -207 27 -167 148 -295 321 -342 41
-11 48 -15 26 -15 -38 -1 -30 -8 14 -13 26 -2 35 1 35 12 0 9 9 15 22 14 12 0
19 4 16 9 -3 5 0 7 8 5 21 -8 68 19 125 74 l52 49 26 -53 c15 -29 42 -78 61
-108 32 -50 35 -60 35 -135 0 -55 3 -75 10 -65 5 8 10 28 10 43 0 37 10 55 93
165 38 51 67 95 63 99 -6 7 -66 -49 -66 -61 0 -4 -9 -15 -20 -26 -17 -17 -19
-18 -16 -2 1 9 15 42 29 72 15 30 27 61 27 68 0 20 9 14 56 -34 25 -25 69 -57
99 -70 59 -28 58 -24 55 -124 -1 -61 -36 -354 -51 -434 -15 -81 -39 -156 -66
-211 -30 -58 -24 -66 -75 100 l-34 110 18 40 c23 53 23 106 -3 165 l-21 49 31
39 c33 42 101 142 101 148 0 8 -69 3 -101 -7 -51 -17 -67 -36 -84 -98 -9 -31
-25 -71 -36 -89 -10 -18 -19 -43 -19 -55 0 -21 1 -21 14 3 38 67 62 124 65
154 2 27 37 58 69 62 18 2 32 0 32 -5 0 -5 -15 -29 -33 -53 -65 -87 -68 -93
-50 -118 19 -27 13 -108 -17 -223 -19 -76 -63 -157 -84 -157 -35 0 -89 139
-107 272 -9 66 -8 80 5 100 21 29 20 44 -1 66 -39 41 -83 101 -75 105 4 3 19
3 34 0 27 -5 42 -28 69 -108 13 -37 43 -74 62 -75 4 0 -2 19 -14 42 -11 22
-27 62 -35 88 -19 64 -41 81 -113 87 -84 8 -83 1 32 -131 l37 -43 -25 -54
c-29 -63 -31 -91 -9 -155 15 -45 15 -50 -17 -170 -17 -68 -36 -121 -40 -118
-18 11 -58 92 -78 156 -20 66 -57 363 -63 499 l-2 67 -71 4 c-170 11 -335 155
-375 326 -20 88 -9 197 28 277 l32 68 21 -27 c20 -25 20 -28 5 -51z m90 -9
c33 -12 77 -26 98 -30 l38 -7 -26 -26 c-99 -99 -10 -303 132 -303 56 0 106 24
138 66 34 43 35 90 3 112 -77 54 -137 89 -132 76 3 -8 23 -24 45 -35 45 -23
47 -46 8 -66 -22 -11 -23 -13 -5 -13 17 0 17 -2 5 -10 -23 -15 -51 -12 -72 7
-24 21 -23 36 1 23 27 -14 28 -14 29 22 0 17 -8 44 -19 59 -10 15 -16 34 -13
42 4 11 -8 21 -43 37 -26 11 -50 20 -52 20 -7 -3 -20 24 -15 32 6 9 136 -69
147 -88 4 -7 36 -31 71 -54 63 -41 156 -137 156 -162 -1 -26 -38 -94 -71 -127
-173 -175 -480 -46 -529 222 -11 58 -2 126 24 190 9 20 18 37 19 37 2 0 30
-11 63 -24z m214 -88 c0 -4 -5 -8 -10 -8 -16 0 -50 -62 -50 -90 0 -40 33 -108
58 -119 56 -26 130 3 157 61 l15 33 -5 -30 c-7 -34 -53 -82 -90 -91 -85 -21
-185 60 -185 151 0 28 23 79 47 107 12 13 20 15 39 6 13 -6 24 -15 24 -20z
m473 -8 c-6 -23 -33 -49 -33 -31 0 6 5 11 11 11 5 0 8 4 5 9 -8 12 4 42 14 36
5 -3 6 -14 3 -25z m-488 -56 c-15 -31 -5 -82 22 -101 19 -15 71 -17 91 -4 7 4
20 26 27 47 l14 39 1 -33 c0 -47 -37 -82 -87 -82 -57 1 -93 38 -93 95 0 30 16
65 30 65 5 0 3 -12 -5 -26z m554 0 c4 -3 -52 -53 -74 -66 -16 -10 -57 23 -47
37 4 6 23 20 42 32 32 20 53 19 79 -3z m-178 -5 c34 -24 37 -44 10 -58 -15 -8
-25 -6 -47 11 -48 36 -49 37 -28 53 25 19 31 19 65 -6z m-335 0 c10 -17 -13
-36 -27 -22 -12 12 -4 33 11 33 5 0 12 -5 16 -11z m304 -101 c0 -16 -18 -7
-43 22 -37 41 -34 46 8 13 19 -15 35 -31 35 -35z m215 33 c-9 -9 -22 -25 -30
-36 -13 -17 -16 -18 -24 -5 -12 18 14 50 41 50 12 0 16 4 12 12 -5 7 -3 8 5 4
9 -6 8 -12 -4 -25z m-47 -114 c16 -15 18 -25 11 -61 -4 -23 -19 -68 -33 -99
-13 -31 -22 -65 -19 -76 3 -13 -2 -23 -17 -31 -32 -17 -34 -7 -7 47 13 26 35
78 47 115 l23 68 -44 39 -44 39 -3 -131 c-1 -73 -6 -135 -11 -140 -7 -7 -68
115 -86 172 -6 21 -4 23 13 19 14 -4 23 1 31 19 16 36 14 36 -24 6 -26 -20
-33 -33 -29 -48 13 -46 13 -58 -1 -30 -22 47 -18 64 31 119 26 28 51 63 56 78
l10 28 38 -58 c22 -32 48 -66 58 -75z m582 -95 c0 -12 -76 -72 -92 -72 -7 0 3
13 22 29 19 16 40 34 45 40 12 12 25 14 25 3z m-170 -186 c0 -2 12 -62 26
-133 21 -108 26 -166 31 -372 5 -184 3 -242 -5 -237 -7 4 -12 29 -12 55 0 27
-9 68 -19 92 -37 84 -67 278 -74 477 -3 98 -2 104 17 112 24 10 36 12 36 6z
m-156 -502 c13 -241 16 -350 7 -363 -7 -11 -14 -11 -41 3 -49 24 -61 20 -105
-31 -66 -76 -137 -143 -153 -143 -5 0 -19 -9 -32 -20 -23 -20 -23 -20 -64 3
-22 12 -86 66 -142 120 -55 53 -105 97 -111 97 -6 0 -16 -7 -23 -15 -7 -8 -24
-15 -37 -15 l-25 0 6 113 c3 61 7 158 8 215 1 57 6 106 10 108 5 3 8 2 7 -3
-1 -4 0 -15 3 -23 3 -8 18 -53 32 -101 19 -60 38 -98 65 -129 l38 -44 31 43
c18 24 32 50 32 58 0 23 24 93 33 93 4 0 27 -20 50 -45 24 -25 48 -45 53 -45
12 1 43 28 75 67 26 31 27 31 37 10 6 -12 20 -48 31 -79 11 -32 28 -69 39 -82
l19 -25 32 32 c31 33 90 178 91 224 0 26 19 78 25 71 3 -2 7 -44 9 -94z"/>
<path d="M813 2330 c25 -30 52 -54 60 -52 9 1 18 -2 22 -8 3 -5 11 -10 18 -10
6 0 2 7 -10 15 -12 9 -27 14 -33 13 -5 -2 -31 20 -56 47 l-46 50 45 -55z"/>
<path d="M1933 2031 c-15 -8 -23 -16 -16 -18 7 -2 21 0 32 6 28 15 28 15 61
-31 54 -74 37 -159 -41 -212 -68 -46 -147 -40 -194 14 l-20 24 36 -22 c46 -28
102 -28 146 -1 61 38 81 113 43 162 -23 29 -82 55 -74 32 4 -9 -2 -13 -20 -11
-28 4 -39 -7 -42 -39 -1 -25 26 -64 46 -65 13 0 13 -1 0 -10 -13 -8 -12 -10 4
-10 11 0 28 8 38 17 18 16 18 16 12 0 -3 -10 -15 -22 -25 -27 -23 -13 -86 -13
-94 0 -3 6 -11 10 -17 10 -7 0 -6 -5 2 -15 17 -20 70 -28 103 -16 37 14 63 74
48 108 -6 13 -7 23 -2 23 11 0 21 -25 21 -51 0 -35 -31 -80 -64 -94 -60 -25
-128 -8 -160 40 -17 26 -17 27 20 61 21 19 42 34 46 34 4 0 8 4 8 10 0 5 -25
-7 -55 -28 -46 -31 -55 -42 -55 -67 0 -79 109 -158 193 -139 121 26 187 132
153 247 -9 30 -22 60 -31 67 -21 18 -70 18 -102 1z m-18 -111 c0 -22 -39 -19
-43 3 -3 15 1 18 20 15 12 -2 23 -10 23 -18z"/>
<path d="M2146 2003 c-6 -36 -20 -77 -53 -152 -12 -29 -12 -33 0 -23 27 23 66
108 73 160 8 60 -10 74 -20 15z"/>
<path d="M1506 2444 c-11 -28 -7 -31 50 -37 31 -3 81 -18 113 -34 30 -15 60
-30 64 -32 5 -2 4 6 -2 17 -6 11 -21 24 -33 28 -13 3 -29 11 -37 17 -7 6 -18
12 -25 13 -64 12 -84 17 -103 29 -18 12 -22 12 -27 -1z"/>
<path d="M1264 1532 c-74 -83 -91 -110 -35 -57 36 34 108 125 99 125 -2 0 -30
-31 -64 -68z"/>
<path d="M1185 1350 c7 -34 77 -143 108 -169 25 -20 32 7 9 32 -11 12 -44 56
-72 97 -46 67 -51 71 -45 40z"/>
<path d="M1797 1343 c-9 -16 -40 -61 -71 -101 -52 -67 -57 -93 -11 -54 44 36
115 165 101 180 -3 2 -11 -9 -19 -25z"/>
<path d="M886 2014 c-14 -37 -5 -91 24 -141 17 -29 32 -53 35 -53 5 0 -5 31
-15 45 -13 18 -27 101 -22 134 4 32 -11 43 -22 15z"/>
<path d="M1470 781 c-8 -6 -18 -7 -24 -4 -5 3 -6 1 -2 -5 3 -6 1 -16 -6 -24
-29 -29 -51 -86 -46 -116 4 -25 2 -29 -9 -21 -23 20 -14 0 28 -64 50 -74 79
-107 93 -107 6 1 31 31 55 68 53 81 57 126 20 200 -37 72 -72 96 -109 73z m77
-77 l32 -43 -37 -105 c-20 -58 -39 -106 -42 -106 -3 1 -23 47 -45 103 l-40
103 40 62 c33 51 42 58 50 45 6 -9 24 -35 42 -59z"/>
<path d="M2286 1582 c14 -73 11 -108 -12 -154 -13 -26 -24 -54 -24 -61 0 -8
-7 -20 -15 -27 -12 -10 -15 -9 -15 5 0 18 -30 88 -36 83 -1 -2 6 -37 17 -78
21 -80 52 -405 47 -485 l-3 -50 -12 35 c-11 35 -11 35 -9 -17 0 -29 2 -53 2
-53 1 0 19 15 40 34 l38 34 -17 223 c-24 325 -25 305 2 333 12 13 25 42 28 64
7 54 -5 129 -22 136 -10 3 -12 -2 -9 -22z"/>
<path d="M841 1401 c-12 -22 -21 -52 -21 -66 0 -33 -13 -32 -38 2 l-20 28 -5
-25 c-3 -14 -22 -130 -43 -258 l-37 -234 31 -31 c17 -17 34 -28 37 -25 8 8 40
202 60 372 11 86 26 163 41 203 28 75 25 94 -5 34z"/>
<path d="M880 1426 c0 -12 54 -106 61 -106 4 0 9 10 13 23 8 29 8 42 -1 33 -4
-3 -22 8 -40 26 -18 17 -33 28 -33 24z"/>
<path d="M2135 1375 c-11 -13 -20 -29 -19 -35 1 -5 2 -16 3 -22 1 -15 27 20
41 56 12 32 1 33 -25 1z"/>
<path d="M2352 1173 c-15 -66 -36 -253 -29 -259 9 -10 39 139 44 224 3 45 3
82 0 82 -3 0 -10 -21 -15 -47z"/>
<path d="M637 1194 c-6 -11 8 -148 23 -214 7 -36 9 -21 6 72 -4 108 -15 164
-29 142z"/>
<path d="M1947 723 c-8 -21 -18 -54 -21 -73 l-7 -35 17 30 c23 40 45 115 35
115 -5 0 -16 -17 -24 -37z"/>
</g>
</svg>
